Coordinates
version=1
nRows=4
nColumns=63
inDegrees=yes

Units are S.I. units (second, meters, Newtons, ...)
If the header above contains a line with 'inDegrees', this indicates whether rotational values are in degrees (yes) or radians (no).

endheader
time	pelvis_tilt	pelvis_list	pelvis_rotation	pelvis_tx	pelvis_ty	pelvis_tz	hip_flexion_r	hip_adduction_r	hip_rotation_r	knee_angle_r	knee_angle_r_beta	ankle_angle_r	subtalar_angle_r	mtp_angle_r	hip_flexion_l	hip_adduction_l	hip_rotation_l	knee_angle_l	knee_angle_l_beta	ankle_angle_l	subtalar_angle_l	mtp_angle_l	L5_S1_Flex_Ext	L5_S1_Lat_Bending	L5_S1_axial_rotation	L4_L5_Flex_Ext	L4_L5_Lat_Bending	L4_L5_axial_rotation	L3_L4_Flex_Ext	L3_L4_Lat_Bending	L3_L4_axial_rotation	L2_L3_Flex_Ext	L2_L3_Lat_Bending	L2_L3_axial_rotation	L1_L2_Flex_Ext	L1_L2_Lat_Bending	L1_L2_axial_rotation	L1_T12_Flex_Ext	L1_T12_Lat_Bending	L1_T12_axial_rotation	Abs_r3	Abs_r2	Abs_r1	Abs_t1	Abs_t2	neck_flexion	neck_bending	neck_rotation	arm_flex_r	arm_add_r	arm_rot_r	elbow_flex_r	pro_sup_r	wrist_flex_r	wrist_dev_r	arm_flex_l	arm_add_l	arm_rot_l	elbow_flex_l	pro_sup_l	wrist_flex_l	wrist_dev_l
      0.00000000	      3.59915664	     -2.11308491	     94.22687369	      0.13613058	      0.58778067	      0.87924261	     11.25466782	     -1.61260585	    -14.27542255	     11.29611751	      0.19715444	     25.80717235	     17.23249513	      0.00000000	     10.71032795	      1.18742288	     10.98253399	      6.75305038	      0.11786296	     20.53829412	    -14.03921231	      0.00000000	      0.32456900	      0.11839380	      0.28389698	      0.60275708	      0.15746376	      0.30164055	      0.53323440	      0.28786269	      0.30164055	      0.37094991	      0.28786269	      0.24840986	      0.30139477	      0.24142864	      0.23066630	      0.18545872	      0.18339200	      0.21292274	      2.31836388	      1.33929437	      1.57894985	      0.00000000	      0.00000000	     23.75108862	      3.71006624	      9.65557732	     22.23591118	    -10.16519890	     76.80804297	     41.64709294	     81.29115784	      3.62083573	      0.49383564	     18.02121931	     -9.30289528	     69.41056611	     42.23855335	     75.13633512	     -2.76897534	     -9.99288837
      0.01666667	      3.53762988	     -2.10995248	     95.31739983	      0.13399710	      0.58731664	      0.88016918	     11.02573864	     -1.92216807	    -14.96980421	     10.96949532	      0.19145381	     26.36114727	     17.00343316	      0.00000000	     11.19034105	      1.55910549	     11.98541860	      7.40644618	      0.12926687	     20.50687296	    -14.31275695	      0.00000000	      0.32758244	      0.11175498	      0.01703540	      0.60835335	      0.14863413	      0.01810011	      0.53818519	      0.27172107	      0.01810011	      0.37439397	      0.27172107	      0.01490598	      0.30419305	      0.22789076	      0.01384126	      0.18718061	      0.17310847	      0.01277655	      2.33988861	      1.26419472	      0.09474579	      0.00000000	      0.00000000	     24.51417998	      4.31406359	      9.72991367	     20.76214458	     -9.78159439	     72.91923018	     40.63215027	     78.97225624	      2.02783029	      0.92306952	     18.07362969	     -9.25050930	     69.27043327	     41.98050940	     67.38715735	     -0.69801918	     -8.38032520
      0.03333333	      3.29209135	     -2.09271034	     96.15643514	      0.13259833	      0.58687048	      0.88042258	     10.70657016	     -2.33297903	    -15.48105608	     10.68114103	      0.18642108	     26.53541316	     16.75352621	      0.00000000	     11.45324932	      2.02592031	     12.35244729	      7.85643507	      0.13712066	     20.56280883	    -14.21310331	      0.00000000	      0.33071096	      0.07371140	     -0.16593206	      0.61416332	      0.09803616	     -0.17630281	      0.54332503	      0.17922190	     -0.17630281	      0.37796955	      0.17922190	     -0.14519055	      0.30709820	      0.15031229	     -0.13481980	      0.18896824	      0.11417896	     -0.12444904	      2.36223530	      0.83383810	     -0.92286434	      0.00000000	      0.00000000	     24.97883844	      5.03826591	      9.54252349	     19.61870670	     -9.19466908	     70.16985467	     39.48668616	     76.76166838	      1.24566558	      0.37164388	     18.01291566	     -9.14595998	     68.43326321	     41.57080088	     66.53720793	     -0.02737045	     -7.47759253
      0.05000000	      3.02410707	     -2.08091947	     96.84003202	      0.13144858	      0.58637425	      0.88034458	     10.39893120	     -2.75509208	    -16.25012345	     10.54154726	      0.18398471	     26.57233052	     16.79619720	      0.00000000	     11.62984851	      2.48365593	     12.68603858	      8.22807789	      0.14360705	     20.50278662	    -14.29677521	      0.00000000	      0.34098154	      0.02466373	     -0.29175398	      0.63323682	      0.03280276	     -0.30998861	      0.56019857	      0.05996738	     -0.30998861	      0.38970780	      0.05996738	     -0.25528473	      0.31663546	      0.05029427	     -0.23705011	      0.19483685	      0.03820411	     -0.21881549	      2.43559705	      0.27900101	     -1.62264812	      0.00000000	      0.00000000	     25.22823653	      5.53794603	      8.43841664	     19.42786899	     -8.68087394	     71.15162222	     38.20122406	     64.09102521	      2.52137029	      0.82448194	     17.89397885	     -8.90288384	     67.23116227	     41.04957858	     66.33131476	      1.37864598	     -5.63853307
